P3
3 3
255
150 0 0
0 255 0
0 0 255
255 255 0
255 0 255
0 255 255
42 42 42
107 107 107
182 182 182

