P3
# CREATOR: GIMP PNM Filter Version 1.1
3 3
255
150
0
0
1
255
1
1
1
255
252
255
1
255
1
252
1
252
255
42
42
42
107
107
107
182
182
182
