P2
80 80
255
0 0 0 0 0 0 0 0 0 0 0 0 0 0 0 0 0 0 0 0 
0 0 0 0 0 0 0 0 0 0 0 0 0 0 0 0 0 0 0 0 
0 0 0 0 0 0 0 0 0 0 0 0 0 0 0 0 0 0 0 0 
0 0 0 0 0 0 0 0 0 0 0 0 0 0 0 0 0 0 0 0 

0 0 0 0 0 0 0 0 0 0 0 0 0 0 0 0 0 0 0 0 
0 0 0 0 0 0 0 0 0 0 0 0 0 0 0 0 0 0 0 0 
0 0 0 0 0 0 0 0 0 0 0 0 0 0 0 0 0 0 0 0 
0 0 0 0 0 0 0 0 0 0 0 0 0 0 0 0 0 0 0 0 

0 0 0 0 0 0 0 0 0 0 0 0 0 0 0 0 0 0 0 0 
0 0 0 0 0 0 0 0 0 0 0 0 0 0 0 0 0 0 0 0 
0 0 0 0 0 0 0 0 0 0 0 0 0 0 0 0 0 0 0 0 
0 0 0 0 0 0 0 0 0 0 0 0 0 0 0 0 0 0 0 0 

0 0 0 0 0 0 0 0 0 0 0 0 0 0 0 0 0 0 0 0 
0 0 0 0 0 0 0 0 0 0 0 0 0 0 0 0 0 0 0 0 
0 0 0 0 0 0 0 0 0 0 0 0 0 0 0 0 0 0 0 0 
0 0 0 0 0 0 0 0 0 0 0 0 0 0 0 0 0 0 0 0 

0 0 0 0 255 255 255 255 255 255 255 255 255 255 255 255 0 0 0 0 
0 0 0 0 255 255 255 255 255 255 255 255 255 255 255 255 0 0 0 0 
0 0 0 0 50 50 50 50 50 50 50 50 50 50 50 50 0 0 0 0 
0 0 0 0 255 255 255 255 255 255 255 255 255 255 255 255 0 0 0 0 

0 0 0 0 255 255 255 255 255 255 255 255 255 255 255 255 0 0 0 0 
0 0 0 0 255 255 255 255 255 255 255 255 255 255 255 255 0 0 0 0 
0 0 0 0 50 50 50 50 50 50 50 50 50 50 50 50 0 0 0 0 
0 0 0 0 255 255 255 255 255 255 255 255 255 255 255 255 0 0 0 0 

0 0 0 0 255 255 255 255 255 255 255 255 255 255 255 255 0 0 0 0 
0 0 0 0 255 255 255 255 255 255 255 255 255 255 255 255 0 0 0 0 
0 0 0 0 50 50 50 50 50 50 50 50 50 50 50 50 0 0 0 0 
0 0 0 0 255 255 255 255 255 255 255 255 255 255 255 255 0 0 0 0 

0 0 0 0 255 255 255 255 255 255 255 255 255 255 255 255 0 0 0 0 
0 0 0 0 255 255 255 255 255 255 255 255 255 255 255 255 0 0 0 0 
0 0 0 0 50 50 50 50 50 50 50 50 50 50 50 50 0 0 0 0 
0 0 0 0 255 255 255 255 255 255 255 255 255 255 255 255 0 0 0 0 

0 0 0 0 255 255 255 255 255 255 255 255 255 255 255 255 0 0 0 0 
0 0 0 0 255 255 255 255 255 255 255 255 255 255 255 255 0 0 0 0 
0 0 0 0 50 50 50 50 50 50 50 50 50 50 50 50 0 0 0 0 
0 0 0 0 255 255 255 255 255 255 255 255 255 255 255 255 0 0 0 0 

0 0 0 0 255 255 255 255 255 255 255 255 255 255 255 255 0 0 0 0 
0 0 0 0 255 255 255 255 255 255 255 255 255 255 255 255 0 0 0 0 
0 0 0 0 50 50 50 50 50 50 50 50 50 50 50 50 0 0 0 0 
0 0 0 0 255 255 255 255 255 255 255 255 255 255 255 255 0 0 0 0 

0 0 0 0 255 255 255 255 255 255 255 255 255 255 255 255 0 0 0 0 
0 0 0 0 255 255 255 255 255 255 255 255 255 255 255 255 0 0 0 0 
0 0 0 0 50 50 50 50 50 50 50 50 50 50 50 50 0 0 0 0 
0 0 0 0 255 255 255 255 255 255 255 255 255 255 255 255 0 0 0 0 

0 0 0 0 255 255 255 255 255 255 255 255 255 255 255 255 0 0 0 0 
0 0 0 0 255 255 255 255 255 255 255 255 255 255 255 255 0 0 0 0 
0 0 0 0 50 50 50 50 50 50 50 50 50 50 50 50 0 0 0 0 
0 0 0 0 255 255 255 255 255 255 255 255 255 255 255 255 0 0 0 0 

0 0 0 0 255 255 255 255 255 255 255 255 255 255 255 255 0 0 0 0 
0 0 0 0 255 255 255 255 255 255 255 255 255 255 255 255 0 0 0 0 
0 0 0 0 50 50 50 50 50 50 50 50 50 50 50 50 0 0 0 0 
0 0 0 0 255 255 255 255 255 255 255 255 255 255 255 255 0 0 0 0 

0 0 0 0 255 255 255 255 255 255 255 255 255 255 255 255 0 0 0 0 
0 0 0 0 255 255 255 255 255 255 255 255 255 255 255 255 0 0 0 0 
0 0 0 0 50 50 50 50 50 50 50 50 50 50 50 50 0 0 0 0 
0 0 0 0 255 255 255 255 255 255 255 255 255 255 255 255 0 0 0 0 

0 0 0 0 255 255 255 255 255 255 255 255 255 255 255 255 0 0 0 0 
0 0 0 0 255 255 255 255 255 255 255 255 255 255 255 255 0 0 0 0 
0 0 0 0 50 50 50 50 50 50 50 50 50 50 50 50 0 0 0 0 
0 0 0 0 255 255 255 255 255 255 255 255 255 255 255 255 0 0 0 0 

0 0 0 0 255 255 255 255 255 255 255 255 255 255 255 255 0 0 0 0 
0 0 0 0 255 255 255 255 255 255 255 255 255 255 255 255 0 0 0 0 
0 0 0 0 50 50 50 50 50 50 50 50 50 50 50 50 0 0 0 0 
0 0 0 0 255 255 255 255 255 255 255 255 255 255 255 255 0 0 0 0 

0 0 0 0 0 0 0 0 0 0 0 0 0 0 0 0 0 0 0 0 
0 0 0 0 0 0 0 0 0 0 0 0 0 0 0 0 0 0 0 0 
0 0 0 0 0 0 0 0 0 0 0 0 0 0 0 0 0 0 0 0 
0 0 0 0 0 0 0 0 0 0 0 0 0 0 0 0 0 0 0 0 

0 0 0 0 0 0 0 0 0 0 0 0 0 0 0 0 0 0 0 0 
0 0 0 0 0 0 0 0 0 0 0 0 0 0 0 0 0 0 0 0 
0 0 0 0 0 0 0 0 0 0 0 0 0 0 0 0 0 0 0 0 
0 0 0 0 0 0 0 0 0 0 0 0 0 0 0 0 0 0 0 0 

0 0 0 0 0 0 0 0 0 0 0 0 0 0 0 0 0 0 0 0 
0 0 0 0 0 0 0 0 0 0 0 0 0 0 0 0 0 0 0 0 
0 0 0 0 0 0 0 0 0 0 0 0 0 0 0 0 0 0 0 0 
0 0 0 0 0 0 0 0 0 0 0 0 0 0 0 0 0 0 0 0 

0 0 0 0 0 0 0 0 0 0 0 0 0 0 0 0 0 0 0 0 
0 0 0 0 0 0 0 0 0 0 0 0 0 0 0 0 0 0 0 0 
0 0 0 0 0 0 0 0 0 0 0 0 0 0 0 0 0 0 0 0 
0 0 0 0 0 0 0 0 0 0 0 0 0 0 0 0 0 0 0 0 


0 0 0 0 0 0 0 0 0 0 0 0 0 0 0 0 0 0 0 0 
0 0 0 0 0 0 0 0 0 0 0 0 0 0 0 0 0 0 0 0 
0 0 0 0 0 0 0 0 0 0 0 0 0 0 0 0 0 0 0 0 
0 0 0 0 0 0 0 0 0 0 0 0 0 0 0 0 0 0 0 0 

0 0 0 0 0 0 0 0 0 0 0 0 0 0 0 0 0 0 0 0 
0 0 0 0 0 0 0 0 0 0 0 0 0 0 0 0 0 0 0 0 
0 0 0 0 0 0 0 0 0 0 0 0 0 0 0 0 0 0 0 0 
0 0 0 0 0 0 0 0 0 0 0 0 0 0 0 0 0 0 0 0 

0 0 0 0 0 0 0 0 0 0 0 0 0 0 0 0 0 0 0 0 
0 0 0 0 0 0 0 0 0 0 0 0 0 0 0 0 0 0 0 0 
0 0 0 0 0 0 0 0 0 0 0 0 0 0 0 0 0 0 0 0 
0 0 0 0 0 0 0 0 0 0 0 0 0 0 0 0 0 0 0 0 

0 0 0 0 0 0 0 0 0 0 0 0 0 0 0 0 0 0 0 0 
0 0 0 0 0 0 0 0 0 0 0 0 0 0 0 0 0 0 0 0 
0 0 0 0 0 0 0 0 0 0 0 0 0 0 0 0 0 0 0 0 
0 0 0 0 0 0 0 0 0 0 0 0 0 0 0 0 0 0 0 0 

0 0 0 0 255 255 255 255 255 255 255 255 255 255 255 255 0 0 0 0 
0 0 0 0 255 255 255 255 255 255 255 255 255 255 255 255 0 0 0 0 
0 0 0 0 255 255 255 255 255 255 255 255 255 255 255 255 0 0 0 0 
0 0 0 0 255 255 255 255 255 255 255 255 255 255 255 255 0 0 0 0 

0 0 0 0 255 255 255 255 255 255 255 255 255 255 255 255 0 0 0 0 
0 0 0 0 255 255 255 255 255 255 255 255 255 255 255 255 0 0 0 0 
0 0 0 0 255 255 255 255 255 255 255 255 255 255 255 255 0 0 0 0 
0 0 0 0 255 255 255 255 255 255 255 255 255 255 255 255 0 0 0 0 

0 0 0 0 255 255 255 255 255 255 255 255 255 255 255 255 0 0 0 0 
0 0 0 0 255 255 255 255 255 255 255 255 255 255 255 255 0 0 0 0 
0 0 0 0 255 255 255 255 255 255 255 255 255 255 255 255 0 0 0 0 
0 0 0 0 255 255 255 255 255 255 255 255 255 255 255 255 0 0 0 0 

0 0 0 0 255 255 255 255 255 255 255 255 255 255 255 255 0 0 0 0 
0 0 0 0 255 255 255 255 255 255 255 255 255 255 255 255 0 0 0 0 
0 0 0 0 255 255 255 255 255 255 255 255 255 255 255 255 0 0 0 0 
0 0 0 0 255 255 255 255 255 255 255 255 255 255 255 255 0 0 0 0 

0 0 0 0 255 255 255 255 255 255 255 255 255 255 255 255 0 0 0 0 
0 0 0 0 255 255 255 255 255 255 255 255 255 255 255 255 0 0 0 0 
0 0 0 0 255 255 255 255 255 255 255 255 255 255 255 255 0 0 0 0 
0 0 0 0 255 255 255 255 255 255 255 255 255 255 255 255 0 0 0 0 

0 0 0 0 255 255 255 255 255 255 255 255 255 255 255 255 0 0 0 0 
0 0 0 0 255 255 255 255 255 255 255 255 255 255 255 255 0 0 0 0 
0 0 0 0 255 255 255 255 255 255 255 255 255 255 255 255 0 0 0 0 
0 0 0 0 255 255 255 255 255 255 255 255 255 255 255 255 0 0 0 0 

0 0 0 0 255 255 255 255 255 255 255 255 255 255 255 255 0 0 0 0 
0 0 0 0 255 255 255 255 255 255 255 255 255 255 255 255 0 0 0 0 
0 0 0 0 255 255 255 255 255 255 255 255 255 255 255 255 0 0 0 0 
0 0 0 0 255 255 255 255 255 255 255 255 255 255 255 255 0 0 0 0 

0 0 0 0 255 255 255 255 255 255 255 255 255 255 255 255 0 0 0 0 
0 0 0 0 255 255 255 255 255 255 255 255 255 255 255 255 0 0 0 0 
0 0 0 0 255 255 255 255 255 255 255 255 255 255 255 255 0 0 0 0 
0 0 0 0 255 255 255 255 255 255 255 255 255 255 255 255 0 0 0 0 

0 0 0 0 255 255 255 255 255 255 255 255 255 255 255 255 0 0 0 0 
0 0 0 0 255 255 255 255 255 255 255 255 255 255 255 255 0 0 0 0 
0 0 0 0 255 255 255 255 255 255 255 255 255 255 255 255 0 0 0 0 
0 0 0 0 255 255 255 255 255 255 255 255 255 255 255 255 0 0 0 0 

0 0 0 0 255 255 255 255 255 255 255 255 255 255 255 255 0 0 0 0 
0 0 0 0 255 255 255 255 255 255 255 255 255 255 255 255 0 0 0 0 
0 0 0 0 255 255 255 255 255 255 255 255 255 255 255 255 0 0 0 0 
0 0 0 0 255 255 255 255 255 255 255 255 255 255 255 255 0 0 0 0 

0 0 0 0 255 255 255 255 255 255 255 255 255 255 255 255 0 0 0 0 
0 0 0 0 255 255 255 255 255 255 255 255 255 255 255 255 0 0 0 0 
0 0 0 0 255 255 255 255 255 255 255 255 255 255 255 255 0 0 0 0 
0 0 0 0 255 255 255 255 255 255 255 255 255 255 255 255 0 0 0 0 

0 0 0 0 255 255 255 255 255 255 255 255 255 255 255 255 0 0 0 0 
0 0 0 0 255 255 255 255 255 255 255 255 255 255 255 255 0 0 0 0 
0 0 0 0 255 255 255 255 255 255 255 255 255 255 255 255 0 0 0 0 
0 0 0 0 255 255 255 255 255 255 255 255 255 255 255 255 0 0 0 0 

0 0 0 0 255 255 255 255 255 255 255 255 255 255 255 255 0 0 0 0 
0 0 0 0 0 0 0 0 0 0 0 0 0 0 0 0 0 0 0 0 
0 0 0 0 0 0 0 0 0 0 0 0 0 0 0 0 0 0 0 0 
0 0 0 0 0 0 0 0 0 0 0 0 0 0 0 0 0 0 0 0 

0 0 0 0 255 255 255 255 255 255 255 255 255 255 255 255 0 0 0 0 
0 0 0 0 0 0 0 0 0 0 0 0 0 0 0 0 0 0 0 0 
0 0 0 0 0 0 0 0 0 0 0 0 0 0 0 0 0 0 0 0 
0 0 0 0 0 0 0 0 0 0 0 0 0 0 0 0 0 0 0 0 

0 0 0 0 255 255 255 255 255 255 255 255 255 255 255 255 0 0 0 0 
0 0 0 0 0 0 0 0 0 0 0 0 0 0 0 0 0 0 0 0 
0 0 0 0 0 0 0 0 0 0 0 0 0 0 0 0 0 0 0 0 
0 0 0 0 0 0 0 0 0 0 0 0 0 0 0 0 0 0 0 0 

0 0 0 0 255 255 255 255 255 255 255 255 255 255 255 255 0 0 0 0 
0 0 0 0 0 0 0 0 0 0 0 0 0 0 0 0 0 0 0 0 
0 0 0 0 0 0 0 0 0 0 0 0 0 0 0 0 0 0 0 0 
0 0 0 0 0 0 0 0 0 0 0 0 0 0 0 0 0 0 0 0 


0 0 0 0 255 255 255 255 255 255 255 255 255 255 255 255 0 0 0 0 
0 0 0 0 0 0 0 0 0 0 0 0 0 0 0 0 0 0 0 0 
0 0 0 0 0 0 0 0 0 0 0 0 0 0 0 0 0 0 0 0 
0 0 0 0 0 0 0 0 0 0 0 0 0 0 0 0 0 0 0 0 

0 0 0 0 255 255 255 255 255 255 255 255 255 255 255 255 0 0 0 0 
0 0 0 0 0 0 0 0 0 0 0 0 0 0 0 0 0 0 0 0 
0 0 0 0 0 0 0 0 0 0 0 0 0 0 0 0 0 0 0 0 
0 0 0 0 0 0 0 0 0 0 0 0 0 0 0 0 0 0 0 0 

0 0 0 0 255 255 255 255 255 255 255 255 255 255 255 255 0 0 0 0 
0 0 0 0 0 0 0 0 0 0 0 0 0 0 0 0 0 0 0 0 
0 0 0 0 0 0 0 0 0 0 0 0 0 0 0 0 0 0 0 0 
0 0 0 0 0 0 0 0 0 0 0 0 0 0 0 0 0 0 0 0 

0 0 0 0 255 255 255 255 255 255 255 255 255 255 255 255 0 0 0 0 
0 0 0 0 0 0 0 0 0 0 0 0 0 0 0 0 0 0 0 0 
0 0 0 0 0 0 0 0 0 0 0 0 0 0 0 0 0 0 0 0 
0 0 0 0 0 0 0 0 0 0 0 0 0 0 0 0 0 0 0 0 

0 0 0 0 150 150 150 150 150 150 150 150 150 150 150 150 0 0 0 0 
0 0 0 0 255 255 255 255 255 255 255 255 255 255 255 255 0 0 0 0 
0 0 0 0 255 255 255 255 255 255 255 255 255 255 255 255 0 0 0 0 
0 0 0 0 255 255 255 255 255 255 255 255 255 255 255 255 0 0 0 0 

0 0 0 0 150 150 150 150 150 150 150 150 150 150 150 150 0 0 0 0 
0 0 0 0 255 255 255 255 255 255 255 255 255 255 255 255 0 0 0 0 
0 0 0 0 255 255 255 255 255 255 255 255 255 255 255 255 0 0 0 0 
0 0 0 0 255 255 255 255 255 255 255 255 255 255 255 255 0 0 0 0 

0 0 0 0 150 150 150 150 150 150 150 150 150 150 150 150 0 0 0 0 
0 0 0 0 255 255 255 255 255 255 255 255 255 255 255 255 0 0 0 0 
0 0 0 0 255 255 255 255 255 255 255 255 255 255 255 255 0 0 0 0 
0 0 0 0 255 255 255 255 255 255 255 255 255 255 255 255 0 0 0 0 

0 0 0 0 150 150 150 150 150 150 150 150 150 150 150 150 0 0 0 0 
0 0 0 0 255 255 255 255 255 255 255 255 255 255 255 255 0 0 0 0 
0 0 0 0 255 255 255 255 255 255 255 255 255 255 255 255 0 0 0 0 
0 0 0 0 255 255 255 255 255 255 255 255 255 255 255 255 0 0 0 0 

0 0 0 0 150 150 150 150 150 150 150 150 150 150 150 150 0 0 0 0 
0 0 0 0 255 255 255 255 255 255 255 255 255 255 255 255 0 0 0 0 
0 0 0 0 255 255 255 255 255 255 255 255 255 255 255 255 0 0 0 0 
0 0 0 0 255 255 255 255 255 255 255 255 255 255 255 255 0 0 0 0 

0 0 0 0 150 150 150 150 150 150 150 150 150 150 150 150 0 0 0 0 
0 0 0 0 255 255 255 255 255 255 255 255 255 255 255 255 0 0 0 0 
0 0 0 0 255 255 255 255 255 255 255 255 255 255 255 255 0 0 0 0 
0 0 0 0 255 255 255 255 255 255 255 255 255 255 255 255 0 0 0 0 

0 0 0 0 150 150 150 150 150 150 150 150 150 150 150 150 0 0 0 0 
0 0 0 0 255 255 255 255 255 255 255 255 255 255 255 255 0 0 0 0 
0 0 0 0 255 255 255 255 255 255 255 255 255 255 255 255 0 0 0 0 
0 0 0 0 255 255 255 255 255 255 255 255 255 255 255 255 0 0 0 0 

0 0 0 0 150 150 150 150 150 150 150 150 150 150 150 150 0 0 0 0 
0 0 0 0 255 255 255 255 255 255 255 255 255 255 255 255 0 0 0 0 
0 0 0 0 255 255 255 255 255 255 255 255 255 255 255 255 0 0 0 0 
0 0 0 0 255 255 255 255 255 255 255 255 255 255 255 255 0 0 0 0 

0 0 0 0 150 150 150 150 150 150 150 150 150 150 150 150 0 0 0 0 
0 0 0 0 255 255 255 255 255 255 255 255 255 255 255 255 0 0 0 0 
0 0 0 0 255 255 255 255 255 255 255 255 255 255 255 255 0 0 0 0 
0 0 0 0 255 255 255 255 255 255 255 255 255 255 255 255 0 0 0 0 

0 0 0 0 150 150 150 150 150 150 150 150 150 150 150 150 0 0 0 0 
0 0 0 0 255 255 255 255 255 255 255 255 255 255 255 255 0 0 0 0 
0 0 0 0 255 255 255 255 255 255 255 255 255 255 255 255 0 0 0 0 
0 0 0 0 255 255 255 255 255 255 255 255 255 255 255 255 0 0 0 0 

0 0 0 0 150 150 150 150 150 150 150 150 150 150 150 150 0 0 0 0 
0 0 0 0 255 255 255 255 255 255 255 255 255 255 255 255 0 0 0 0 
0 0 0 0 255 255 255 255 255 255 255 255 255 255 255 255 0 0 0 0 
0 0 0 0 255 255 255 255 255 255 255 255 255 255 255 255 0 0 0 0 

0 0 0 0 150 150 150 150 150 150 150 150 150 150 150 150 0 0 0 0 
0 0 0 0 255 255 255 255 255 255 255 255 255 255 255 255 0 0 0 0 
0 0 0 0 255 255 255 255 255 255 255 255 255 255 255 255 0 0 0 0 
0 0 0 0 255 255 255 255 255 255 255 255 255 255 255 255 0 0 0 0 

0 0 0 0 0 0 0 0 0 0 0 0 0 0 0 0 0 0 0 0 
0 0 0 0 0 0 0 0 0 0 0 0 0 0 0 0 0 0 0 0 
0 0 0 0 0 0 0 0 0 0 0 0 0 0 0 0 0 0 0 0 
0 0 0 0 0 0 0 0 0 0 0 0 0 0 0 0 0 0 0 0 

0 0 0 0 0 0 0 0 0 0 0 0 0 0 0 0 0 0 0 0 
0 0 0 0 0 0 0 0 0 0 0 0 0 0 0 0 0 0 0 0 
0 0 0 0 0 0 0 0 0 0 0 0 0 0 0 0 0 0 0 0 
0 0 0 0 0 0 0 0 0 0 0 0 0 0 0 0 0 0 0 0 

0 0 0 0 0 0 0 0 0 0 0 0 0 0 0 0 0 0 0 0 
0 0 0 0 0 0 0 0 0 0 0 0 0 0 0 0 0 0 0 0 
0 0 0 0 0 0 0 0 0 0 0 0 0 0 0 0 0 0 0 0 
0 0 0 0 0 0 0 0 0 0 0 0 0 0 0 0 0 0 0 0 

0 0 0 0 0 0 0 0 0 0 0 0 0 0 0 0 0 0 0 0 
0 0 0 0 0 0 0 0 0 0 0 0 0 0 0 0 0 0 0 0 
0 0 0 0 0 0 0 0 0 0 0 0 0 0 0 0 0 0 0 0 
0 0 0 0 0 0 0 0 0 0 0 0 0 0 0 0 0 0 0 0 


0 0 0 0 0 0 0 0 0 0 0 0 0 0 0 0 0 0 0 0 
0 0 0 0 0 0 0 0 0 0 0 0 0 0 0 0 0 0 0 0 
0 0 0 0 0 0 0 0 0 0 0 0 0 0 0 0 0 0 0 0 
0 0 0 0 0 0 0 0 0 0 0 0 0 0 0 0 0 0 0 0 

0 0 0 0 0 0 0 0 0 0 0 0 0 0 0 0 0 0 0 0 
0 0 0 0 0 0 0 0 0 0 0 0 0 0 0 0 0 0 0 0 
0 0 0 0 0 0 0 0 0 0 0 0 0 0 0 0 0 0 0 0 
0 0 0 0 0 0 0 0 0 0 0 0 0 0 0 0 0 0 0 0 

0 0 0 0 0 0 0 0 0 0 0 0 0 0 0 0 0 0 0 0 
0 0 0 0 0 0 0 0 0 0 0 0 0 0 0 0 0 0 0 0 
0 0 0 0 0 0 0 0 0 0 0 0 0 0 0 0 0 0 0 0 
0 0 0 0 0 0 0 0 0 0 0 0 0 0 0 0 0 0 0 0 

0 0 0 0 0 0 0 0 0 0 0 0 0 0 0 0 0 0 0 0 
0 0 0 0 0 0 0 0 0 0 0 0 0 0 0 0 0 0 0 0 
0 0 0 0 0 0 0 0 0 0 0 0 0 0 0 0 0 0 0 0 
0 0 0 0 0 0 0 0 0 0 0 0 0 0 0 0 0 0 0 0 

0 0 0 0 255 255 255 255 255 255 255 255 255 255 255 255 0 0 0 0 
0 0 0 0 255 255 255 255 255 255 255 255 255 255 255 255 0 0 0 0 
0 0 0 0 255 255 255 255 255 255 255 255 255 255 255 255 0 0 0 0 
0 0 0 0 255 255 255 255 255 255 255 255 255 255 255 255 0 0 0 0 

0 0 0 0 255 255 255 255 255 255 255 255 255 255 255 255 0 0 0 0 
0 0 0 0 255 255 255 255 255 255 255 255 255 255 255 255 0 0 0 0 
0 0 0 0 255 255 255 255 255 255 255 255 255 255 255 255 0 0 0 0 
0 0 0 0 255 255 255 255 255 255 255 255 255 255 255 255 0 0 0 0 

0 0 0 0 255 255 255 255 255 255 255 255 255 255 255 255 0 0 0 0 
0 0 0 0 255 255 255 255 255 255 255 255 255 255 255 255 0 0 0 0 
0 0 0 0 255 255 255 255 255 255 255 255 255 255 255 255 0 0 0 0 
0 0 0 0 255 255 255 255 255 255 255 255 255 255 255 255 0 0 0 0 

0 0 0 0 255 255 255 255 255 255 255 255 255 255 255 255 0 0 0 0 
0 0 0 0 255 255 255 255 255 255 255 255 255 255 255 255 0 0 0 0 
0 0 0 0 255 255 255 255 255 255 255 255 255 255 255 255 0 0 0 0 
0 0 0 0 255 255 255 255 255 255 255 255 255 255 255 255 0 0 0 0 

0 0 0 0 255 255 255 255 255 255 255 255 255 255 255 255 0 0 0 0 
0 0 0 0 255 255 255 255 255 255 255 255 255 255 255 255 0 0 0 0 
0 0 0 0 255 255 255 255 255 255 255 255 255 255 255 255 0 0 0 0 
0 0 0 0 255 255 255 255 255 255 255 255 255 255 255 255 0 0 0 0 

0 0 0 0 255 255 255 255 255 255 255 255 255 255 255 255 0 0 0 0 
0 0 0 0 255 255 255 255 255 255 255 255 255 255 255 255 0 0 0 0 
0 0 0 0 255 255 255 255 255 255 255 255 255 255 255 255 0 0 0 0 
0 0 0 0 255 255 255 255 255 255 255 255 255 255 255 255 0 0 0 0 

0 0 0 0 255 255 255 255 255 255 255 255 255 255 255 255 0 0 0 0 
0 0 0 0 255 255 255 255 255 255 255 255 255 255 255 255 0 0 0 0 
0 0 0 0 255 255 255 255 255 255 255 255 255 255 255 255 0 0 0 0 
0 0 0 0 255 255 255 255 255 255 255 255 255 255 255 255 0 0 0 0 

0 0 0 0 255 255 255 255 255 255 255 255 255 255 255 255 0 0 0 0 
0 0 0 0 255 255 255 255 255 255 255 255 255 255 255 255 0 0 0 0 
0 0 0 0 255 255 255 255 255 255 255 255 255 255 255 255 0 0 0 0 
0 0 0 0 255 255 255 255 255 255 255 255 255 255 255 255 0 0 0 0 

0 0 0 0 255 255 255 255 255 255 255 255 255 255 255 255 0 0 0 0 
0 0 0 0 255 255 255 255 255 255 255 255 255 255 255 255 0 0 0 0 
0 0 0 0 255 255 255 255 255 255 255 255 255 255 255 255 0 0 0 0 
0 0 0 0 255 255 255 255 255 255 255 255 255 255 255 255 0 0 0 0 

0 0 0 0 255 255 255 255 255 255 255 255 255 255 255 255 0 0 0 0 
0 0 0 0 255 255 255 255 255 255 255 255 255 255 255 255 0 0 0 0 
0 0 0 0 255 255 255 255 255 255 255 255 255 255 255 255 0 0 0 0 
0 0 0 0 255 255 255 255 255 255 255 255 255 255 255 255 0 0 0 0 

0 0 0 0 255 255 255 255 255 255 255 255 255 255 255 255 0 0 0 0 
0 0 0 0 255 255 255 255 255 255 255 255 255 255 255 255 0 0 0 0 
0 0 0 0 255 255 255 255 255 255 255 255 255 255 255 255 0 0 0 0 
0 0 0 0 255 255 255 255 255 255 255 255 255 255 255 255 0 0 0 0 

0 0 0 0 255 255 255 255 255 255 255 255 255 255 255 255 0 0 0 0 
0 0 0 0 255 255 255 255 255 255 255 255 255 255 255 255 0 0 0 0 
0 0 0 0 255 255 255 255 255 255 255 255 255 255 255 255 0 0 0 0 
0 0 0 0 255 255 255 255 255 255 255 255 255 255 255 255 0 0 0 0 

0 0 0 0 0 0 0 0 0 0 0 0 0 0 0 0 0 0 0 0 
0 0 0 0 0 0 0 0 0 0 0 0 0 0 0 0 0 0 0 0 
0 0 0 0 0 0 0 0 0 0 0 0 0 0 0 0 0 0 0 0 
0 0 0 0 0 0 0 0 0 0 0 0 0 0 0 0 0 0 0 0 

0 0 0 0 0 0 0 0 0 0 0 0 0 0 0 0 0 0 0 0 
0 0 0 0 0 0 0 0 0 0 0 0 0 0 0 0 0 0 0 0 
0 0 0 0 0 0 0 0 0 0 0 0 0 0 0 0 0 0 0 0 
0 0 0 0 0 0 0 0 0 0 0 0 0 0 0 0 0 0 0 0 

0 0 0 0 0 0 0 0 0 0 0 0 0 0 0 0 0 0 0 0 
0 0 0 0 0 0 0 0 0 0 0 0 0 0 0 0 0 0 0 0 
0 0 0 0 0 0 0 0 0 0 0 0 0 0 0 0 0 0 0 0 
0 0 0 0 0 0 0 0 0 0 0 0 0 0 0 0 0 0 0 0 

0 0 0 0 0 0 0 0 0 0 0 0 0 0 0 0 0 0 0 0 
0 0 0 0 0 0 0 0 0 0 0 0 0 0 0 0 0 0 0 0 
0 0 0 0 0 0 0 0 0 0 0 0 0 0 0 0 0 0 0 0 
0 0 0 0 0 0 0 0 0 0 0 0 0 0 0 0 0 0 0 0 


